<svg width="170" height="25" viewBox="0 0 170 25" fill="none" xmlns="http://www.w3.org/2000/svg">
<path d="M100.193 9.64268V1.03088H104.373C105.334 1.03088 106.074 1.23212 106.591 1.63114C107.108 2.03015 107.369 2.57145 107.369 3.25498C107.369 3.76156 107.22 4.19179 106.921 4.54917C106.622 4.90655 106.22 5.1529 105.706 5.28128V5.08695C106.317 5.19452 106.789 5.427 107.119 5.79132C107.449 6.15217 107.615 6.62407 107.615 7.20351C107.615 7.95991 107.338 8.55667 106.786 8.99385C106.23 9.43103 105.473 9.64616 104.512 9.64616H100.196L100.193 9.64268ZM102.356 4.44854H103.956C104.387 4.44854 104.702 4.37567 104.904 4.22995C105.105 4.08422 105.202 3.85871 105.202 3.55684C105.202 3.25498 105.102 3.0329 104.904 2.89064C104.702 2.74839 104.387 2.67552 103.956 2.67552H102.356V4.44854ZM102.356 7.9911H104.213C104.637 7.9911 104.952 7.91479 105.161 7.75866C105.369 7.60252 105.473 7.36308 105.473 7.03693C105.473 6.71078 105.369 6.46444 105.161 6.31525C104.952 6.16952 104.637 6.09665 104.213 6.09665H102.356V7.9911Z" fill="black"/>
<path d="M116.461 9.64268V1.03088H118.722V7.77598H122.412V9.64616H116.458L116.461 9.64268Z" fill="black"/>
<path d="M131.227 9.64268V1.03088H137.414V2.75185H133.393V4.39996H137.122V6.13481H133.393V7.90436H137.414V9.63921H131.227V9.64268Z" fill="black"/>
<path d="M149.419 9.77454C148.725 9.77454 148.069 9.69128 147.444 9.52473C146.819 9.35818 146.298 9.13267 145.875 8.84468L146.51 7.09941C146.777 7.26942 147.072 7.41863 147.392 7.54007C147.711 7.66151 148.041 7.75864 148.388 7.82804C148.735 7.89743 149.086 7.93215 149.447 7.93215C149.985 7.93215 150.357 7.86276 150.565 7.72397C150.773 7.58518 150.877 7.40474 150.877 7.18615C150.877 6.99185 150.808 6.8392 150.669 6.72817C150.53 6.61714 150.27 6.52343 149.888 6.44015L148.395 6.13482C147.603 5.97174 147.013 5.68724 146.621 5.28475C146.229 4.88227 146.034 4.35485 146.034 3.70255C146.034 3.13351 146.187 2.63738 146.492 2.21754C146.798 1.79771 147.229 1.47153 147.781 1.23906C148.336 1.00659 148.982 0.89209 149.725 0.89209C150.336 0.89209 150.912 0.975353 151.447 1.1419C151.985 1.30844 152.426 1.53744 152.766 1.83237L152.131 3.4701C151.804 3.23416 151.436 3.05371 151.03 2.92533C150.624 2.80043 150.169 2.73453 149.673 2.73453C149.176 2.73453 148.843 2.80739 148.603 2.94965C148.364 3.0919 148.242 3.29314 148.242 3.55337C148.242 3.7338 148.315 3.88645 148.458 4.01136C148.6 4.13627 148.864 4.24037 149.246 4.32364L150.711 4.61508C151.502 4.77122 152.092 5.04533 152.488 5.44435C152.884 5.84336 153.082 6.36382 153.082 7.00919C153.082 7.56434 152.929 8.04666 152.624 8.46302C152.318 8.87939 151.891 9.19857 151.346 9.42757C150.801 9.65657 150.155 9.77107 149.416 9.77107L149.419 9.77454Z" fill="black"/>
<path d="M165.32 9.77454C164.626 9.77454 163.97 9.69128 163.345 9.52473C162.72 9.35818 162.199 9.13267 161.775 8.84468L162.411 7.09941C162.678 7.26942 162.973 7.41863 163.293 7.54007C163.612 7.66151 163.942 7.75864 164.289 7.82804C164.636 7.89743 164.987 7.93215 165.348 7.93215C165.886 7.93215 166.257 7.86276 166.466 7.72397C166.674 7.58518 166.778 7.40474 166.778 7.18615C166.778 6.99185 166.709 6.8392 166.57 6.72817C166.431 6.61714 166.171 6.52343 165.789 6.44015L164.296 6.13482C163.504 5.97174 162.914 5.68724 162.522 5.28475C162.13 4.88227 161.935 4.35485 161.935 3.70255C161.935 3.13351 162.088 2.63738 162.393 2.21754C162.699 1.79771 163.129 1.47153 163.681 1.23906C164.237 1.00659 164.883 0.89209 165.626 0.89209C166.237 0.89209 166.813 0.975353 167.348 1.1419C167.886 1.30844 168.327 1.53744 168.667 1.83237L168.032 3.4701C167.705 3.23416 167.337 3.05371 166.931 2.92533C166.525 2.80043 166.07 2.73453 165.574 2.73453C165.077 2.73453 164.744 2.80739 164.504 2.94965C164.265 3.0919 164.143 3.29314 164.143 3.55337C164.143 3.7338 164.216 3.88645 164.358 4.01136C164.501 4.13627 164.765 4.24037 165.147 4.32364L166.612 4.61508C167.403 4.77122 167.993 5.04533 168.389 5.44435C168.785 5.84336 168.983 6.36382 168.983 7.00919C168.983 7.56434 168.83 8.04666 168.525 8.46302C168.219 8.87939 167.792 9.19857 167.247 9.42757C166.702 9.65657 166.056 9.77107 165.317 9.77107L165.32 9.77454Z" fill="black"/>
<path d="M35.079 24.4791C34.1416 24.4791 33.3327 24.2953 32.6522 23.9309C31.9717 23.5632 31.4475 23.0462 31.076 22.38C30.7045 21.7138 30.5205 20.9296 30.5205 20.0345C30.5205 19.1393 30.7045 18.3586 31.076 17.6959C31.4475 17.0332 31.9717 16.5162 32.6522 16.1518C33.3327 15.784 34.1416 15.6036 35.079 15.6036C35.6727 15.6036 36.2143 15.6834 36.7038 15.843C37.1933 16.0026 37.603 16.2282 37.9397 16.5196L37.2662 18.2927C36.8913 18.0255 36.5475 17.8347 36.2316 17.7236C35.9191 17.6126 35.5616 17.5571 35.1623 17.5571C34.4297 17.5571 33.8638 17.7722 33.4681 18.199C33.0723 18.6257 32.8744 19.2399 32.8744 20.0379C32.8744 20.836 33.0723 21.4605 33.4681 21.8873C33.8638 22.3141 34.4263 22.5292 35.1623 22.5292C35.5616 22.5292 35.9191 22.4737 36.2316 22.3661C36.5441 22.2585 36.8913 22.0677 37.2662 21.7971L37.9397 23.5666C37.6064 23.8581 37.1933 24.0871 36.7038 24.2432C36.2143 24.3994 35.6727 24.4826 35.079 24.4826V24.4791Z" fill="black"/>
<path d="M46.2999 20.0345C46.2999 19.1393 46.4734 18.3586 46.8241 17.6959C47.1747 17.0332 47.6747 16.5162 48.3274 16.1518C48.9801 15.7875 49.7508 15.6036 50.6361 15.6036C51.5214 15.6036 52.3061 15.7875 52.9588 16.1518C53.6115 16.5162 54.1149 17.0332 54.469 17.6959C54.8231 18.3586 55.0002 19.1393 55.0002 20.0345C55.0002 20.9296 54.8231 21.6999 54.469 22.3661C54.1149 23.0323 53.6115 23.5527 52.9588 23.924C52.3061 24.2953 51.5319 24.4791 50.6361 24.4791C49.7404 24.4791 48.9801 24.2953 48.3309 23.924C47.6816 23.5527 47.1817 23.0358 46.8276 22.3661C46.4734 21.6999 46.2964 20.9192 46.2964 20.0345H46.2999ZM48.6607 20.0345C48.6607 20.8394 48.8239 21.4709 49.1502 21.922C49.4766 22.373 49.973 22.5986 50.6396 22.5986C51.3062 22.5986 51.8096 22.373 52.1429 21.922C52.4762 21.4709 52.6428 20.8394 52.6428 20.0345C52.6428 19.2295 52.4762 18.6015 52.1429 18.1539C51.8096 17.7063 51.3062 17.4808 50.6396 17.4808C49.973 17.4808 49.4731 17.7028 49.1502 18.1469C48.8239 18.591 48.6607 19.2191 48.6607 20.0345Z" fill="black"/>
<path d="M64.0996 24.3439V15.7321H66.0542L68.8768 22.0469H68.4741L71.2862 15.7321H73.2547V24.3439H71.2133V19.0664H71.7376L69.2934 24.3439H68.0227L65.5647 19.0664H66.1271V24.3439H64.0996Z" fill="black"/>
<path d="M82.6045 24.3439V15.7321H84.5591L87.3817 22.0469H86.979L89.7911 15.7321H91.7596V24.3439H89.7182V19.0664H90.2424L87.7983 24.3439H86.5276L84.0696 19.0664H84.632V24.3439H82.6045Z" fill="black"/>
<path d="M104.9 24.4792C103.612 24.4792 102.647 24.16 102.005 23.525C101.362 22.8901 101.04 21.9394 101.04 20.6799V15.7321H103.289V20.6903C103.289 21.3183 103.421 21.7936 103.682 22.1129C103.942 22.4355 104.348 22.5952 104.904 22.5952C105.459 22.5952 105.865 22.4355 106.126 22.1129C106.386 21.7902 106.518 21.3183 106.518 20.6903V15.7321H108.743V20.6799C108.743 21.9428 108.424 22.8901 107.789 23.525C107.153 24.16 106.192 24.4792 104.904 24.4792H104.9Z" fill="black"/>
<path d="M117.954 24.3439V15.7321H119.617L123.981 21.1448H123.627V15.7321H125.717V24.3439H124.054L119.715 18.9311H120.069V24.3439H117.954Z" fill="black"/>
<path d="M135.008 24.3439V15.7321H137.268V24.3439H135.008Z" fill="black"/>
<path d="M148.527 24.3438V17.5501H145.913V15.7285H153.405V17.5501H150.79V24.3438H148.53H148.527Z" fill="black"/>
<path d="M164.355 24.3438V20.2252L164.806 21.4709L160.946 15.7285H163.549L165.737 19.1843H165.296L167.483 15.7285H170L166.16 21.4709L166.612 20.2252V24.3438H164.351H164.355Z" fill="black"/>
<path d="M89.2043 0.5H0V9.48656H89.2043V0.5Z" fill="black"/>
<path d="M23.4728 15.5134H0V24.5H23.4728V15.5134Z" fill="black"/>
</svg>
